<?xml version="1.0" encoding="UTF-8" standalone="no"?>
<!-- Created with Inkscape (http://www.inkscape.org/) -->

<svg
   version="1.1"
   id="svg2"
   width="6666.6665"
   height="6666.6665"
   viewBox="0 0 6666.6665 6666.6665"
   sodipodi:docname="shutterstock_2046446501.eps"
   xmlns:inkscape="http://www.inkscape.org/namespaces/inkscape"
   xmlns:sodipodi="http://sodipodi.sourceforge.net/DTD/sodipodi-0.dtd"
   xmlns="http://www.w3.org/2000/svg"
   xmlns:svg="http://www.w3.org/2000/svg">
  <defs
     id="defs6" />
  <sodipodi:namedview
     id="namedview4"
     pagecolor="#ffffff"
     bordercolor="#000000"
     borderopacity="0.25"
     inkscape:showpageshadow="2"
     inkscape:pageopacity="0.0"
     inkscape:pagecheckerboard="0"
     inkscape:deskcolor="#d1d1d1" />
  <g
     id="g8"
     inkscape:groupmode="layer"
     inkscape:label="ink_ext_XXXXXX"
     transform="matrix(1.3333333,0,0,-1.3333333,0,6666.6667)">
    <g
       id="g10"
       transform="scale(0.1)">
      <path
         d="M 50000,0 H 0 V 50000 H 50000 V 0"
         style="fill:#ffffff;fill-opacity:1;fill-rule:nonzero;stroke:none"
         id="path12" />
      <path
         d="m 42313.8,31324.7 c 2981,-6385.7 245.9,-13923.4 -6137.2,-16910 -2223.3,-1040.3 -4593.1,-1382.3 -6862.9,-1116.3 -2759.1,323.4 -5517.5,-470.5 -7718.6,-2165.5 -497.9,-383.3 -1045.6,-718 -1639.6,-993.9 -4326.2,-2009 -9436.3,-149.1 -11458.21,4171.1 -2026.86,4330.7 -149.82,9480.7 4183.91,11493.2 218.5,101.5 439.1,193.1 661.3,274.9 2595.9,956.3 4761.9,2835.5 5949.9,5333.9 1228.8,2584.4 3332,4771.6 6130.3,6071 6366.5,2956.6 13923.1,199.2 16891.1,-6158.4"
         style="fill:#d3dde5;fill-opacity:1;fill-rule:nonzero;stroke:none"
         id="path14" />
      <path
         d="m 18856.5,25006 -2669.1,-3952.9 h 2669.1 z"
         style="fill:#ffffff;fill-opacity:1;fill-rule:nonzero;stroke:none"
         id="path16" />
      <path
         d="m 12676.1,31925.1 c 0,-312.9 254.5,-567.4 567.4,-567.4 312.8,0 567.4,254.5 567.4,567.4 0,312.8 -254.6,567.3 -567.4,567.3 -312.9,0 -567.4,-254.5 -567.4,-567.3"
         style="fill:#ffffff;fill-opacity:1;fill-rule:nonzero;stroke:none"
         id="path18" />
      <path
         d="m 16149.5,31925.1 c 0,-312.9 254.6,-567.4 567.4,-567.4 312.9,0 567.4,254.5 567.4,567.4 0,312.8 -254.5,567.3 -567.4,567.3 -312.8,0 -567.4,-254.5 -567.4,-567.3"
         style="fill:#ffffff;fill-opacity:1;fill-rule:nonzero;stroke:none"
         id="path20" />
      <path
         d="m 19622.9,31925.1 c 0,-312.9 254.6,-567.4 567.4,-567.4 312.9,0 567.4,254.5 567.4,567.4 0,312.8 -254.5,567.3 -567.4,567.3 -312.8,0 -567.4,-254.5 -567.4,-567.3"
         style="fill:#ffffff;fill-opacity:1;fill-rule:nonzero;stroke:none"
         id="path22" />
      <path
         d="m 23885.7,25667.4 c -663.3,0 -1203,-539.6 -1203,-1202.9 v -4918.4 c 0,-663.3 539.7,-1203 1203,-1203 H 25028 c 663.3,0 1202.9,539.7 1202.9,1203 v 4918.4 c 0,663.3 -539.6,1202.9 -1202.9,1202.9 h -1142.3"
         style="fill:#ffffff;fill-opacity:1;fill-rule:nonzero;stroke:none"
         id="path24" />
      <path
         d="M 41864.6,19304.5 H 34827 c -305.7,0 -554.5,-248.7 -554.5,-554.4 v -5418.3 c 0,-305.6 248.8,-554.3 554.5,-554.3 h 7037.6 c 305.8,0 554.5,248.7 554.5,554.3 v 5418.3 c 0,305.7 -248.7,554.4 -554.5,554.4"
         style="fill:#ff7d5a;fill-opacity:1;fill-rule:nonzero;stroke:none"
         id="path26" />
      <path
         d="m 36705.2,21485.6 c 0,1048 765.7,1900.6 1706.8,1900.6 941.1,0 1706.7,-852.6 1706.7,-1900.6 v -1597.9 h 1263.4 v 1598 c 0,1744.5 -1332.4,3163.9 -2970.1,3163.9 -1637.8,0 -2970.2,-1419.4 -2970.2,-3163.9 v -1598 h 1263.4 v 1597.9"
         style="fill:#ff7d5a;fill-opacity:1;fill-rule:nonzero;stroke:none"
         id="path28" />
      <path
         d="m 30458.8,18051.6 c 0,-161 -130.6,-291.7 -291.6,-291.7 -161,0 -291.7,130.7 -291.7,291.7 v 7609.7 l -721.3,-15.1 h -6.2 c -158.3,0 -288.1,126.3 -291.2,285.4 -3.5,161 124.4,294.3 285.4,297.8 l 1018.8,21 c 79.3,1.2 154.3,-27.9 210.3,-82.8 56,-55.2 87.5,-130.3 87.5,-208.4 z m -3644.7,1494.3 c 0,-984.6 -801,-1786 -1786,-1786 h -1142.4 c -985,0 -1786.4,801.4 -1786.4,1786 v 4918.6 c 0,984.9 801.4,1786.3 1786.4,1786.3 h 1142.4 c 985,0 1786,-801.4 1786,-1786.3 z m -5977.8,923.9 h -1396.7 v -2418.2 c 0,-161 -130.3,-291.7 -291.7,-291.7 -160.9,0 -291.6,130.7 -291.6,291.7 v 2418.2 h -3217.7 c -107.7,0 -206.9,59.5 -257.5,154.8 -50.9,95.2 -44.7,210.7 15.6,300.1 l 3509.8,5197.4 c 71.5,106.6 204.5,153.2 327,115.9 122.5,-37.7 206.1,-150.9 206.1,-278.8 v -4906.1 h 1396.7 c 161,0 291.7,-130.7 291.7,-291.7 0,-160.9 -130.7,-291.6 -291.7,-291.6 z m 17323.3,5996.5 v 2787.6 h -4236.9 c -161,0 -291.6,130.7 -291.6,291.7 0,1.5 0,3.5 0.4,5 h -1288.3 c 0.4,-1.5 0.4,-3.5 0.4,-5 0,-161 -130.7,-291.7 -291.7,-291.7 H 10730.5 V 15728.5 c 0,-478.2 389.6,-867.5 867.9,-867.5 l 20857.2,-1.1 c 161,0 291.6,-130.7 291.6,-291.7 0,-9.3 -0.4,-18.3 -1.6,-27.2 h 943.8 v 4209.3 c 0,627.2 510.2,1137.4 1137.8,1137.4 h 31.5 v 1597.8 c 0,2064.4 1590.7,3744.2 3547.8,3747.3 v 945.7 c -140,21 -246.9,141.5 -246.9,287.8"
         style="fill:#ffffff;fill-opacity:1;fill-rule:nonzero;stroke:none"
         id="path30" />
      <path
         d="m 20190.5,30774.3 c -634.7,0 -1150.6,516.4 -1150.6,1150.6 0,634.6 515.9,1150.6 1150.6,1150.6 634.2,0 1150.6,-516 1150.6,-1150.6 0,-634.2 -516.4,-1150.6 -1150.6,-1150.6 z m -3473.6,0 c -634.6,0 -1150.6,516.4 -1150.6,1150.6 0,634.6 516,1150.6 1150.6,1150.6 634.6,0 1150.6,-516 1150.6,-1150.6 0,-634.2 -516,-1150.6 -1150.6,-1150.6 z m -3473.3,0 c -634.6,0 -1151,516.4 -1151,1150.6 0,634.6 516.4,1150.6 1151,1150.6 634.3,0 1150.6,-516 1150.6,-1150.6 0,-634.2 -516.3,-1150.6 -1150.6,-1150.6 z m 24271.7,3293.2 H 11375.2 c -355.4,0 -644.7,-289.3 -644.7,-644.7 v -3585.6 h 21321.4 c 159.5,0 288.9,-127.9 291.3,-286.6 h 1288.3 c 2.3,158.7 131.8,286.6 291.2,286.6 h 4236.9 v 3585.6 c 0,355.4 -288.9,644.7 -644.3,644.7"
         style="fill:#7dc1ff;fill-opacity:1;fill-rule:nonzero;stroke:none"
         id="path32" />
      <path
         d="m 18856.3,21053.1 h -2669.1 l 2669.1,3953 z m 1980,0 h -1396.7 v 4906.1 c 0,127.9 -83.6,241.1 -206.1,278.8 -122.5,37.3 -255.5,-9.3 -327,-115.9 l -3509.8,-5197.4 c -60.3,-89.4 -66.5,-204.9 -15.6,-300.1 50.6,-95.3 149.8,-154.8 257.5,-154.8 h 3217.7 v -2418.2 c 0,-161 130.7,-291.7 291.6,-291.7 161.4,0 291.7,130.7 291.7,291.7 v 2418.2 h 1396.7 c 161,0 291.7,130.7 291.7,291.6 0,161 -130.7,291.7 -291.7,291.7"
         style="fill:#1e004c;fill-opacity:1;fill-rule:nonzero;stroke:none"
         id="path34" />
      <path
         d="m 30458.8,25959.2 v -7907.6 c 0,-161 -130.6,-291.7 -291.6,-291.7 -161,0 -291.7,130.7 -291.7,291.7 v 7609.7 l -721.3,-15.1 h -6.2 c -158.3,0 -288.1,126.3 -291.2,285.4 -3.5,161 124.4,294.3 285.4,297.8 l 1018.8,21 c 79.3,1.2 154.3,-27.9 210.3,-82.8 56,-55.2 87.5,-130.3 87.5,-208.4"
         style="fill:#1e004c;fill-opacity:1;fill-rule:nonzero;stroke:none"
         id="path36" />
      <path
         d="m 26230.8,19545.9 c 0,-663 -539.7,-1202.7 -1202.7,-1202.7 h -1142.4 c -663.4,0 -1203.1,539.7 -1203.1,1202.7 v 4918.6 c 0,663.3 539.7,1203.1 1203.1,1203.1 h 1142.4 c 663,0 1202.7,-539.8 1202.7,-1203.1 z m -1202.7,6704.9 h -1142.4 c -985,0 -1786.4,-801.4 -1786.4,-1786.3 v -4918.6 c 0,-984.6 801.4,-1786 1786.4,-1786 h 1142.4 c 985,0 1786,801.4 1786,1786 v 4918.6 c 0,984.9 -801,1786.3 -1786,1786.3"
         style="fill:#1e004c;fill-opacity:1;fill-rule:nonzero;stroke:none"
         id="path38" />
      <path
         d="m 13243.6,31357.6 c -313,0 -567.7,254.7 -567.7,567.3 0,313.1 254.7,567.4 567.7,567.4 312.7,0 567.4,-254.3 567.4,-567.4 0,-312.6 -254.7,-567.3 -567.4,-567.3 z m 0,1717.9 c -634.6,0 -1151,-516 -1151,-1150.6 0,-634.2 516.4,-1150.6 1151,-1150.6 634.3,0 1150.6,516.4 1150.6,1150.6 0,634.6 -516.3,1150.6 -1150.6,1150.6"
         style="fill:#1e004c;fill-opacity:1;fill-rule:nonzero;stroke:none"
         id="path40" />
      <path
         d="m 16716.9,31357.6 c -312.7,0 -567.4,254.7 -567.4,567.3 0,313.1 254.7,567.4 567.4,567.4 313,0 567.3,-254.3 567.3,-567.4 0,-312.6 -254.3,-567.3 -567.3,-567.3 z m 0,1717.9 c -634.6,0 -1150.6,-516 -1150.6,-1150.6 0,-634.2 516,-1150.6 1150.6,-1150.6 634.6,0 1150.6,516.4 1150.6,1150.6 0,634.6 -516,1150.6 -1150.6,1150.6"
         style="fill:#1e004c;fill-opacity:1;fill-rule:nonzero;stroke:none"
         id="path42" />
      <path
         d="m 20190.5,31357.6 c -313.1,0 -567.4,254.7 -567.4,567.3 0,313.1 254.3,567.4 567.4,567.4 312.6,0 567.3,-254.3 567.3,-567.4 0,-312.6 -254.7,-567.3 -567.3,-567.3 z m 0,1717.9 c -634.7,0 -1150.6,-516 -1150.6,-1150.6 0,-634.2 515.9,-1150.6 1150.6,-1150.6 634.2,0 1150.6,516.4 1150.6,1150.6 0,634.6 -516.4,1150.6 -1150.6,1150.6"
         style="fill:#1e004c;fill-opacity:1;fill-rule:nonzero;stroke:none"
         id="path44" />
      <path
         d="m 38749.5,29545.6 c 0,-21 -2.4,-41.7 -6.6,-61.5 v -3017.8 c 0,-161.4 -130.3,-291.7 -291.7,-291.7 -15.1,0 -30.3,1.2 -44.7,3.9 -140,21 -246.9,141.5 -246.9,287.8 v 2787.6 h -4236.9 c -161,0 -291.6,130.7 -291.6,291.7 0,1.5 0,3.5 0.4,5 2.3,158.7 131.8,286.6 291.2,286.6 h 4236.9 v 3585.6 c 0,355.4 -288.9,644.7 -644.3,644.7 H 11375.2 c -355.4,0 -644.7,-289.3 -644.7,-644.7 v -3585.6 h 21321.4 c 159.5,0 288.9,-127.9 291.3,-286.6 0.4,-1.5 0.4,-3.5 0.4,-5 0,-161 -130.7,-291.7 -291.7,-291.7 H 10730.5 V 15728.5 c 0,-478.2 389.6,-867.5 867.9,-867.5 l 20857.2,-1.1 c 161,0 291.6,-130.7 291.6,-291.7 0,-9.3 -0.4,-18.3 -1.6,-27.2 -13.2,-148.5 -138.4,-264.4 -290,-264.4 l -20857.2,1.1 c -800.2,0 -1451.2,650.6 -1451.2,1450.8 v 17694.3 c 0,677 551,1228 1228,1228 h 26140.1 c 677,0 1227.6,-551 1227.6,-1228 V 29607 c 4.2,-19.8 6.6,-40.4 6.6,-61.4"
         style="fill:#1e004c;fill-opacity:1;fill-rule:nonzero;stroke:none"
         id="path46" />
      <path
         d="m 42419.1,13331.7 c 0,-305.7 -248.9,-554.1 -554.5,-554.1 h -7037.4 c -306.1,0 -554.5,248.4 -554.5,554.1 v 5418.6 c 0,305.6 248.4,554.1 554.5,554.1 h 7037.4 c 305.6,0 554.5,-248.5 554.5,-554.1 z m -2883.7,8153.8 v -1597.8 h -2246.8 v 1597.8 c 0,726.3 503.9,1317.4 1123.4,1317.4 619.4,0 1123.4,-591.1 1123.4,-1317.4 z m -4093.5,0 c 0,1744.7 1332.2,3164.1 2970.1,3164.1 1637.8,0 2970,-1419.4 2970,-3164.1 v -1597.8 h -1263.4 v 1597.8 c 0,1047.9 -765.6,1900.7 -1706.6,1900.7 -941.1,0 -1706.7,-852.8 -1706.7,-1900.7 V 19887.7 H 35441.9 Z M 41965.3,19883 v 1602.5 c 0,2066.3 -1593.9,3747.3 -3553.3,3747.3 h -5.5 c -1957.1,-3.1 -3547.8,-1682.9 -3547.8,-3747.3 v -1597.8 h -31.5 c -627.6,0 -1137.8,-510.2 -1137.8,-1137.4 v -5418.6 c 0,-627.2 510.2,-1137.4 1137.8,-1137.4 h 7037.4 c 627.6,0 1137.7,510.2 1137.7,1137.4 v 5418.6 c 0,593 -456.5,1081.4 -1037,1132.7"
         style="fill:#1e004c;fill-opacity:1;fill-rule:nonzero;stroke:none"
         id="path48" />
    </g>
  </g>
</svg>
